<svg width="20" height="21" viewBox="0 0 20 21" fill="none" xmlns="http://www.w3.org/2000/svg">
<g clip-path="url(#clip0_1_1301)">
<path d="M13.9944 11.4073C14.154 10.9809 14.2349 10.5292 14.2333 10.074C14.2333 9.0632 13.8318 8.09383 13.1171 7.37911C12.4023 6.66439 11.433 6.26286 10.4222 6.26286C9.97258 6.26339 9.52667 6.34429 9.10553 6.50175L9.99997 7.42397C10.1359 7.40222 10.2734 7.39108 10.4111 7.39064C11.1258 7.38915 11.812 7.6705 12.32 8.17325C12.8279 8.676 13.1163 9.35931 13.1222 10.074C13.1217 10.2117 13.1106 10.3491 13.0889 10.4851L13.9944 11.4073Z" fill="#7B7B8B"/>
<path d="M19.05 9.81286C17.1778 6.35175 13.8944 4.25731 10.2611 4.25731C9.27184 4.25963 8.28923 4.41902 7.34998 4.72953L8.24442 5.62953C8.90323 5.45927 9.58064 5.37156 10.2611 5.36842C13.3889 5.36842 16.2333 7.11286 17.9278 10.0518C17.3062 11.1421 16.4822 12.1037 15.5 12.8851L16.2889 13.674C17.4256 12.7569 18.3696 11.6241 19.0666 10.3406L19.2111 10.074L19.05 9.81286Z" fill="#7B7B8B"/>
<path d="M2.70554 3.28508L5.18332 5.76286C3.61716 6.77126 2.33715 8.16607 1.46665 9.81286L1.3222 10.074L1.46665 10.3406C3.33887 13.8017 6.6222 15.8962 10.2555 15.8962C11.6737 15.8959 13.0734 15.5749 14.35 14.9573L17.1278 17.7351L18.1 16.9017L3.65554 2.45731L2.70554 3.28508ZM8.1222 8.70175L11.8166 12.3962C11.3992 12.6546 10.9187 12.793 10.4278 12.7962C10.0711 12.7962 9.71787 12.7257 9.38853 12.5887C9.05918 12.4517 8.76018 12.2509 8.50873 11.9979C8.25727 11.7449 8.05833 11.4446 7.92335 11.1145C7.78837 10.7843 7.72001 10.4307 7.7222 10.074C7.72846 9.58873 7.86674 9.11435 8.1222 8.70175ZM7.31665 7.89619C6.79689 8.62919 6.55327 9.52247 6.62894 10.4179C6.7046 11.3132 7.09465 12.153 7.73004 12.7884C8.36543 13.4237 9.20516 13.8138 10.1005 13.8895C10.9959 13.9651 11.8892 13.7215 12.6222 13.2017L13.5111 14.0906C12.4821 14.5305 11.3746 14.7573 10.2555 14.7573C7.12776 14.7573 4.28332 13.0129 2.58887 10.074C3.40204 8.63409 4.57316 7.42853 5.98887 6.57397L7.31665 7.89619Z" fill="#7B7B8B"/>
</g>
<defs>
<clipPath id="clip0_1_1301">
<rect width="20" height="20" fill="white" transform="translate(0 0.0739746)"/>
</clipPath>
</defs>
</svg>
