<svg width="20" height="21" viewBox="0 0 20 21" fill="none" xmlns="http://www.w3.org/2000/svg">
<g clip-path="url(#clip0_1_742)">
<path d="M18.6778 9.81286C16.8056 6.35175 13.5222 4.25731 9.8889 4.25731C6.25557 4.25731 2.96668 6.35175 1.11112 9.81286L0.955566 10.074L1.10001 10.3406C2.97223 13.8018 6.25557 15.8962 9.8889 15.8962C13.5222 15.8962 16.8111 13.8295 18.6778 10.3406L18.8222 10.074L18.6778 9.81286ZM9.8889 14.7573C6.76112 14.7573 3.8889 13.0129 2.22223 10.074C3.8889 7.13509 6.76112 5.39064 9.8889 5.39064C13.0167 5.39064 15.8556 7.14064 17.55 10.074C15.8556 13.0129 13.0111 14.7573 9.8889 14.7573Z" fill="#7B7B8B"/>
<path d="M10.05 6.27954C9.29672 6.28503 8.56198 6.51364 7.93856 6.93647C7.31514 7.3593 6.83101 7.9574 6.54731 8.65523C6.26361 9.35305 6.19307 10.1193 6.3446 10.8572C6.49613 11.5951 6.86293 12.2715 7.39868 12.8011C7.93443 13.3306 8.61509 13.6895 9.35469 13.8324C10.0943 13.9754 10.8597 13.8959 11.5541 13.6041C12.2486 13.3123 12.841 12.8212 13.2566 12.1929C13.6721 11.5646 13.8922 10.8273 13.8889 10.074C13.8867 9.57256 13.7856 9.07649 13.5914 8.61421C13.3971 8.15193 13.1136 7.73253 12.7569 7.38004C12.4003 7.02754 11.9776 6.74889 11.5131 6.56005C11.0486 6.3712 10.5514 6.27588 10.05 6.27954ZM10.05 12.7906C9.51791 12.7852 8.99931 12.6226 8.55933 12.3233C8.11935 12.0241 7.77761 11.6015 7.57702 11.1086C7.37643 10.6158 7.32594 10.0746 7.43189 9.55317C7.53784 9.03172 7.79551 8.5532 8.17253 8.17771C8.54956 7.80222 9.02913 7.54651 9.55101 7.44268C10.0729 7.33886 10.6138 7.39156 11.1058 7.59416C11.5979 7.79676 12.0191 8.14023 12.3165 8.58143C12.614 9.02262 12.7745 9.54188 12.7778 10.074C12.7793 10.4321 12.7096 10.7869 12.5729 11.1179C12.4362 11.4489 12.2352 11.7495 11.9814 12.0022C11.7277 12.2549 11.4263 12.4547 11.0948 12.5901C10.7632 12.7254 10.4081 12.7936 10.05 12.7906Z" fill="#7B7B8B"/>
</g>
<defs>
<clipPath id="clip0_1_742">
<rect width="20" height="20" fill="white" transform="translate(0 0.0739746)"/>
</clipPath>
</defs>
</svg>
